<!DOCTYPE svg PUBLIC "-//W3C//DTD SVG 1.1//EN" "http://www.w3.org/Graphics/SVG/1.1/DTD/svg11.dtd">
<!-- Uploaded to: SVG Repo, www.svgrepo.com, Transformed by: SVG Repo Mixer Tools -->
<svg height="800px" width="800px" version="1.1" id="Layer_1" xmlns="http://www.w3.org/2000/svg" xmlns:xlink="http://www.w3.org/1999/xlink" viewBox="-51.2 -51.2 614.40 614.40" xml:space="preserve" fill="#000000" stroke="#000000" stroke-width="0.00512" transform="matrix(1, 0, 0, 1, 0, 0)rotate(0)">
<g id="SVGRepo_bgCarrier" stroke-width="0" transform="translate(0,0), scale(1)">
<path transform="translate(-51.2, -51.2), scale(19.2)" d="M16,29.686003658920527C18.15458806708934,29.82554612511642,19.884191793921385,28.025375842351366,21.88324090570711,27.209579000371384C24.099188725532084,26.305267434063346,27.23975972644017,26.65951117138241,28.46059613629777,24.600928501312644C29.706814025328658,22.499547408174088,28.570690221235424,19.69794377879392,27.68931361946094,17.41933964218193C26.98215791116086,15.591145066880935,24.669676592241537,14.808426952439921,23.965240943701485,12.97918256799936C23.26636830797209,11.164383945873006,24.473811123393816,9.04482804724941,23.76667891810734,7.233231777632545C22.90441313021664,5.024200039178199,21.860107736809894,2.1275117246729343,19.539314370969674,1.640437127165102C17.187123967016703,1.146773102124943,15.081116818057286,3.42493896343892,13.29762865665919,5.036048470648199C11.911893459753147,6.287848846188519,11.56053735030367,8.257842496157433,10.507034776465122,9.79972399065131C9.73024277726774,10.936618421074314,8.922027602797609,12.002297498170243,7.904240843645413,12.929683539060647C5.966063497630847,14.695710262537737,1.6845826157004367,15.103763389410997,1.8116492667896882,17.7227776846794C1.9333092140807173,20.230352554918174,6.541399989756762,19.526445173306254,8.310708828148812,21.307534476798818C9.648334538808715,22.65406640702879,9.22022887790012,25.074206400598275,10.503570401999587,26.472571629524293C11.959723209737307,28.05923692173656,13.850926896412577,29.546818370794906,16,29.686003658920527" fill="#eef0f2" strokewidth="0"/>
</g>
<g id="SVGRepo_tracerCarrier" stroke-linecap="round" stroke-linejoin="round" stroke="#CCCCCC" stroke-width="18.432"/>
<g id="SVGRepo_iconCarrier"> <path style="fill:#eef0f2;" d="M256,508C117.04,508,4,394.96,4,256S117.04,4,256,4s252,113.04,252,252S394.96,508,256,508z"/> <path style="fill:#aeadb8;" d="M256,8c136.752,0,248,111.248,248,248S392.752,504,256,504S8,392.752,8,256S119.248,8,256,8 M256,0 C114.608,0,0,114.608,0,256s114.608,256,256,256s256-114.608,256-256S397.392,0,256,0L256,0z"/> <g> <ellipse style="fill:#aeadb8;" cx="256" cy="175.648" rx="61.712" ry="60.48"/> <path style="fill:#aeadb8;" d="M362.592,360.624c0-57.696-47.728-104.464-106.592-104.464s-106.592,46.768-106.592,104.464H362.592 z"/> </g> </g>
</svg>